<?xml version="1.0" standalone="no"?>
<!DOCTYPE svg PUBLIC "-//W3C//DTD SVG 1.1//EN" "http://www.w3.org/Graphics/SVG/1.1/DTD/svg11.dtd">
<svg width="482mm" height="236mm" viewBox="0 -43 482 236" xmlns="http://www.w3.org/2000/svg" version="1.1">
<title>OpenSCAD Model</title>
<path d="
M 236,-0.699982 L 232.8,-0.699982 L 232.8,-15.7 L 236,-15.7 L 236,-39.2 L 235.962,-39.6849
 L 235.848,-40.1579 L 235.662,-40.6073 L 235.408,-41.0221 L 235.092,-41.392 L 234.722,-41.7079 L 234.307,-41.9621
 L 233.858,-42.1483 L 233.385,-42.2618 L 232.9,-42.3 L 185.1,-42.3 L 184.615,-42.2618 L 184.142,-42.1483
 L 183.693,-41.9621 L 183.278,-41.7079 L 182.908,-41.392 L 182.592,-41.0221 L 182.338,-40.6073 L 182.152,-40.1579
 L 182.038,-39.6849 L 182,-39.2 L 182,-15.7 L 185.2,-15.7 L 185.2,-0.699982 L 182,-0.699982
 L 182,0.699997 L 236,0.699997 z
M 177,-0.699982 L 173.8,-0.699982 L 173.8,-15.7 L 177,-15.7 L 177,-39.2 L 176.962,-39.6849
 L 176.848,-40.1579 L 176.662,-40.6073 L 176.408,-41.0221 L 176.092,-41.392 L 175.722,-41.7079 L 175.307,-41.9621
 L 174.858,-42.1483 L 174.385,-42.2618 L 173.9,-42.3 L 126.1,-42.3 L 125.615,-42.2618 L 125.142,-42.1483
 L 124.693,-41.9621 L 124.278,-41.7079 L 123.908,-41.392 L 123.592,-41.0221 L 123.338,-40.6073 L 123.152,-40.1579
 L 123.038,-39.6849 L 123,-39.2 L 123,-15.7 L 126.2,-15.7 L 126.2,-0.699982 L 123,-0.699982
 L 123,0.699997 L 177,0.699997 z
M 113,-0.699982 L 109.8,-0.699982 L 109.8,-15.7 L 113,-15.7 L 113,-39.2 L 112.962,-39.6849
 L 112.848,-40.1579 L 112.662,-40.6073 L 112.408,-41.0221 L 112.092,-41.392 L 111.722,-41.7079 L 111.307,-41.9621
 L 110.858,-42.1483 L 110.385,-42.2618 L 109.9,-42.3 L 62.1,-42.3 L 61.6151,-42.2618 L 61.1421,-42.1483
 L 60.6926,-41.9621 L 60.2779,-41.7079 L 59.908,-41.392 L 59.5921,-41.0221 L 59.3379,-40.6073 L 59.1517,-40.1579
 L 59.0382,-39.6849 L 59,-39.2 L 59,-15.7 L 62.2,-15.7 L 62.2,-0.699982 L 59,-0.699982
 L 59,0.699997 L 113,0.699997 z
M 359,-0.699982 L 355.8,-0.699982 L 355.8,-15.7 L 359,-15.7 L 359,-39.2 L 358.962,-39.6849
 L 358.848,-40.1579 L 358.662,-40.6073 L 358.408,-41.0221 L 358.092,-41.392 L 357.722,-41.7079 L 357.307,-41.9621
 L 356.858,-42.1483 L 356.385,-42.2618 L 355.9,-42.3 L 308.1,-42.3 L 307.615,-42.2618 L 307.142,-42.1483
 L 306.693,-41.9621 L 306.278,-41.7079 L 305.908,-41.392 L 305.592,-41.0221 L 305.338,-40.6073 L 305.152,-40.1579
 L 305.038,-39.6849 L 305,-39.2 L 305,-15.7 L 308.2,-15.7 L 308.2,-0.699982 L 305,-0.699982
 L 305,0.699997 L 359,0.699997 z
M 54,-0.699982 L 50.8,-0.699982 L 50.8,-15.7 L 54,-15.7 L 54,-39.2 L 53.9618,-39.6849
 L 53.8483,-40.1579 L 53.6621,-40.6073 L 53.4079,-41.0221 L 53.092,-41.392 L 52.7221,-41.7079 L 52.3074,-41.9621
 L 51.8579,-42.1483 L 51.3849,-42.2618 L 50.9,-42.3 L 3.09999,-42.3 L 2.61505,-42.2618 L 2.14204,-42.1483
 L 1.69263,-41.9621 L 1.27786,-41.7079 L 0.907959,-41.392 L 0.592041,-41.0221 L 0.337875,-40.6073 L 0.151718,-40.1579
 L 0.0381622,-39.6849 L 0,-39.2 L 0,-15.7 L 3.2,-15.7 L 3.2,-0.699982 L 0,-0.699982
 L 0,0.699997 L 54,0.699997 z
M 482,-0.699982 L 478.8,-0.699982 L 478.8,-15.7 L 482,-15.7 L 482,-39.2 L 481.962,-39.6849
 L 481.848,-40.1579 L 481.662,-40.6073 L 481.408,-41.0221 L 481.092,-41.392 L 480.722,-41.7079 L 480.307,-41.9621
 L 479.858,-42.1483 L 479.385,-42.2618 L 478.9,-42.3 L 431.1,-42.3 L 430.615,-42.2618 L 430.142,-42.1483
 L 429.693,-41.9621 L 429.278,-41.7079 L 428.908,-41.392 L 428.592,-41.0221 L 428.338,-40.6073 L 428.152,-40.1579
 L 428.038,-39.6849 L 428,-39.2 L 428,-15.7 L 431.2,-15.7 L 431.2,-0.699982 L 428,-0.699982
 L 428,0.699997 L 482,0.699997 z
M 300,-0.699982 L 296.8,-0.699982 L 296.8,-15.7 L 300,-15.7 L 300,-39.2 L 299.962,-39.6849
 L 299.848,-40.1579 L 299.662,-40.6073 L 299.408,-41.0221 L 299.092,-41.392 L 298.722,-41.7079 L 298.307,-41.9621
 L 297.858,-42.1483 L 297.385,-42.2618 L 296.9,-42.3 L 249.1,-42.3 L 248.615,-42.2618 L 248.142,-42.1483
 L 247.693,-41.9621 L 247.278,-41.7079 L 246.908,-41.392 L 246.592,-41.0221 L 246.338,-40.6073 L 246.152,-40.1579
 L 246.038,-39.6849 L 246,-39.2 L 246,-15.7 L 249.2,-15.7 L 249.2,-0.699982 L 246,-0.699982
 L 246,0.699997 L 300,0.699997 z
M 423,-0.699982 L 419.8,-0.699982 L 419.8,-15.7 L 423,-15.7 L 423,-39.2 L 422.962,-39.6849
 L 422.848,-40.1579 L 422.662,-40.6073 L 422.408,-41.0221 L 422.092,-41.392 L 421.722,-41.7079 L 421.307,-41.9621
 L 420.858,-42.1483 L 420.385,-42.2618 L 419.9,-42.3 L 372.1,-42.3 L 371.615,-42.2618 L 371.142,-42.1483
 L 370.693,-41.9621 L 370.278,-41.7079 L 369.908,-41.392 L 369.592,-41.0221 L 369.338,-40.6073 L 369.152,-40.1579
 L 369.038,-39.6849 L 369,-39.2 L 369,-15.7 L 372.2,-15.7 L 372.2,-0.699982 L 369,-0.699982
 L 369,0.699997 L 423,0.699997 z
M 482,47.3 L 478.8,47.3 L 478.8,32.3 L 482,32.3 L 482,8.8 L 481.962,8.31506
 L 481.848,7.84206 L 481.662,7.39264 L 481.408,6.97787 L 481.092,6.60797 L 480.722,6.29205 L 480.307,6.03789
 L 479.858,5.85173 L 479.385,5.73817 L 478.9,5.7 L 431.1,5.7 L 430.615,5.73817 L 430.142,5.85173
 L 429.693,6.03789 L 429.278,6.29205 L 428.908,6.60797 L 428.592,6.97787 L 428.338,7.39264 L 428.152,7.84206
 L 428.038,8.31506 L 428,8.8 L 428,32.3 L 431.2,32.3 L 431.2,47.3 L 428,47.3
 L 428,48.7 L 482,48.7 z
M 236,47.3 L 232.8,47.3 L 232.8,32.3 L 236,32.3 L 236,8.8 L 235.962,8.31506
 L 235.848,7.84206 L 235.662,7.39264 L 235.408,6.97787 L 235.092,6.60797 L 234.722,6.29205 L 234.307,6.03789
 L 233.858,5.85173 L 233.385,5.73817 L 232.9,5.7 L 185.1,5.7 L 184.615,5.73817 L 184.142,5.85173
 L 183.693,6.03789 L 183.278,6.29205 L 182.908,6.60797 L 182.592,6.97787 L 182.338,7.39264 L 182.152,7.84206
 L 182.038,8.31506 L 182,8.8 L 182,32.3 L 185.2,32.3 L 185.2,47.3 L 182,47.3
 L 182,48.7 L 236,48.7 z
M 300,47.3 L 296.8,47.3 L 296.8,32.3 L 300,32.3 L 300,8.8 L 299.962,8.31506
 L 299.848,7.84206 L 299.662,7.39264 L 299.408,6.97787 L 299.092,6.60797 L 298.722,6.29205 L 298.307,6.03789
 L 297.858,5.85173 L 297.385,5.73817 L 296.9,5.7 L 249.1,5.7 L 248.615,5.73817 L 248.142,5.85173
 L 247.693,6.03789 L 247.278,6.29205 L 246.908,6.60797 L 246.592,6.97787 L 246.338,7.39264 L 246.152,7.84206
 L 246.038,8.31506 L 246,8.8 L 246,32.3 L 249.2,32.3 L 249.2,47.3 L 246,47.3
 L 246,48.7 L 300,48.7 z
M 423,47.3 L 419.8,47.3 L 419.8,32.3 L 423,32.3 L 423,8.8 L 422.962,8.31506
 L 422.848,7.84206 L 422.662,7.39264 L 422.408,6.97787 L 422.092,6.60797 L 421.722,6.29205 L 421.307,6.03789
 L 420.858,5.85173 L 420.385,5.73817 L 419.9,5.7 L 372.1,5.7 L 371.615,5.73817 L 371.142,5.85173
 L 370.693,6.03789 L 370.278,6.29205 L 369.908,6.60797 L 369.592,6.97787 L 369.338,7.39264 L 369.152,7.84206
 L 369.038,8.31506 L 369,8.8 L 369,32.3 L 372.2,32.3 L 372.2,47.3 L 369,47.3
 L 369,48.7 L 423,48.7 z
M 113,47.3 L 109.8,47.3 L 109.8,32.3 L 113,32.3 L 113,8.8 L 112.962,8.31506
 L 112.848,7.84206 L 112.662,7.39264 L 112.408,6.97787 L 112.092,6.60797 L 111.722,6.29205 L 111.307,6.03789
 L 110.858,5.85173 L 110.385,5.73817 L 109.9,5.7 L 62.1,5.7 L 61.6151,5.73817 L 61.1421,5.85173
 L 60.6926,6.03789 L 60.2779,6.29205 L 59.908,6.60797 L 59.5921,6.97787 L 59.3379,7.39264 L 59.1517,7.84206
 L 59.0382,8.31506 L 59,8.8 L 59,32.3 L 62.2,32.3 L 62.2,47.3 L 59,47.3
 L 59,48.7 L 113,48.7 z
M 54,47.3 L 50.8,47.3 L 50.8,32.3 L 54,32.3 L 54,8.8 L 53.9618,8.31506
 L 53.8483,7.84206 L 53.6621,7.39264 L 53.4079,6.97787 L 53.092,6.60797 L 52.7221,6.29205 L 52.3074,6.03789
 L 51.8579,5.85173 L 51.3849,5.73817 L 50.9,5.7 L 3.09999,5.7 L 2.61505,5.73817 L 2.14204,5.85173
 L 1.69263,6.03789 L 1.27786,6.29205 L 0.907959,6.60797 L 0.592041,6.97787 L 0.337875,7.39264 L 0.151718,7.84206
 L 0.0381622,8.31506 L 0,8.8 L 0,32.3 L 3.2,32.3 L 3.2,47.3 L 0,47.3
 L 0,48.7 L 54,48.7 z
M 359,47.3 L 355.8,47.3 L 355.8,32.3 L 359,32.3 L 359,8.8 L 358.962,8.31506
 L 358.848,7.84206 L 358.662,7.39264 L 358.408,6.97787 L 358.092,6.60797 L 357.722,6.29205 L 357.307,6.03789
 L 356.858,5.85173 L 356.385,5.73817 L 355.9,5.7 L 308.1,5.7 L 307.615,5.73817 L 307.142,5.85173
 L 306.693,6.03789 L 306.278,6.29205 L 305.908,6.60797 L 305.592,6.97787 L 305.338,7.39264 L 305.152,7.84206
 L 305.038,8.31506 L 305,8.8 L 305,32.3 L 308.2,32.3 L 308.2,47.3 L 305,47.3
 L 305,48.7 L 359,48.7 z
M 177,47.3 L 173.8,47.3 L 173.8,32.3 L 177,32.3 L 177,8.8 L 176.962,8.31506
 L 176.848,7.84206 L 176.662,7.39264 L 176.408,6.97787 L 176.092,6.60797 L 175.722,6.29205 L 175.307,6.03789
 L 174.858,5.85173 L 174.385,5.73817 L 173.9,5.7 L 126.1,5.7 L 125.615,5.73817 L 125.142,5.85173
 L 124.693,6.03789 L 124.278,6.29205 L 123.908,6.60797 L 123.592,6.97787 L 123.338,7.39264 L 123.152,7.84206
 L 123.038,8.31506 L 123,8.8 L 123,32.3 L 126.2,32.3 L 126.2,47.3 L 123,47.3
 L 123,48.7 L 177,48.7 z
M 236,95.3 L 232.8,95.3 L 232.8,80.3 L 236,80.3 L 236,56.8 L 235.962,56.3151
 L 235.848,55.8421 L 235.662,55.3926 L 235.408,54.9779 L 235.092,54.608 L 234.722,54.2921 L 234.307,54.0379
 L 233.858,53.8517 L 233.385,53.7382 L 232.9,53.7 L 185.1,53.7 L 184.615,53.7382 L 184.142,53.8517
 L 183.693,54.0379 L 183.278,54.2921 L 182.908,54.608 L 182.592,54.9779 L 182.338,55.3926 L 182.152,55.8421
 L 182.038,56.3151 L 182,56.8 L 182,80.3 L 185.2,80.3 L 185.2,95.3 L 182,95.3
 L 182,96.7 L 236,96.7 z
M 300,95.3 L 296.8,95.3 L 296.8,80.3 L 300,80.3 L 300,56.8 L 299.962,56.3151
 L 299.848,55.8421 L 299.662,55.3926 L 299.408,54.9779 L 299.092,54.608 L 298.722,54.2921 L 298.307,54.0379
 L 297.858,53.8517 L 297.385,53.7382 L 296.9,53.7 L 249.1,53.7 L 248.615,53.7382 L 248.142,53.8517
 L 247.693,54.0379 L 247.278,54.2921 L 246.908,54.608 L 246.592,54.9779 L 246.338,55.3926 L 246.152,55.8421
 L 246.038,56.3151 L 246,56.8 L 246,80.3 L 249.2,80.3 L 249.2,95.3 L 246,95.3
 L 246,96.7 L 300,96.7 z
M 423,95.3 L 419.8,95.3 L 419.8,80.3 L 423,80.3 L 423,56.8 L 422.962,56.3151
 L 422.848,55.8421 L 422.662,55.3926 L 422.408,54.9779 L 422.092,54.608 L 421.722,54.2921 L 421.307,54.0379
 L 420.858,53.8517 L 420.385,53.7382 L 419.9,53.7 L 372.1,53.7 L 371.615,53.7382 L 371.142,53.8517
 L 370.693,54.0379 L 370.278,54.2921 L 369.908,54.608 L 369.592,54.9779 L 369.338,55.3926 L 369.152,55.8421
 L 369.038,56.3151 L 369,56.8 L 369,80.3 L 372.2,80.3 L 372.2,95.3 L 369,95.3
 L 369,96.7 L 423,96.7 z
M 482,95.3 L 478.8,95.3 L 478.8,80.3 L 482,80.3 L 482,56.8 L 481.962,56.3151
 L 481.848,55.8421 L 481.662,55.3926 L 481.408,54.9779 L 481.092,54.608 L 480.722,54.2921 L 480.307,54.0379
 L 479.858,53.8517 L 479.385,53.7382 L 478.9,53.7 L 431.1,53.7 L 430.615,53.7382 L 430.142,53.8517
 L 429.693,54.0379 L 429.278,54.2921 L 428.908,54.608 L 428.592,54.9779 L 428.338,55.3926 L 428.152,55.8421
 L 428.038,56.3151 L 428,56.8 L 428,80.3 L 431.2,80.3 L 431.2,95.3 L 428,95.3
 L 428,96.7 L 482,96.7 z
M 54,95.3 L 50.8,95.3 L 50.8,80.3 L 54,80.3 L 54,56.8 L 53.9618,56.3151
 L 53.8483,55.8421 L 53.6621,55.3926 L 53.4079,54.9779 L 53.092,54.608 L 52.7221,54.2921 L 52.3074,54.0379
 L 51.8579,53.8517 L 51.3849,53.7382 L 50.9,53.7 L 3.09999,53.7 L 2.61505,53.7382 L 2.14204,53.8517
 L 1.69263,54.0379 L 1.27786,54.2921 L 0.907959,54.608 L 0.592041,54.9779 L 0.337875,55.3926 L 0.151718,55.8421
 L 0.0381622,56.3151 L 0,56.8 L 0,80.3 L 3.2,80.3 L 3.2,95.3 L 0,95.3
 L 0,96.7 L 54,96.7 z
M 359,95.3 L 355.8,95.3 L 355.8,80.3 L 359,80.3 L 359,56.8 L 358.962,56.3151
 L 358.848,55.8421 L 358.662,55.3926 L 358.408,54.9779 L 358.092,54.608 L 357.722,54.2921 L 357.307,54.0379
 L 356.858,53.8517 L 356.385,53.7382 L 355.9,53.7 L 308.1,53.7 L 307.615,53.7382 L 307.142,53.8517
 L 306.693,54.0379 L 306.278,54.2921 L 305.908,54.608 L 305.592,54.9779 L 305.338,55.3926 L 305.152,55.8421
 L 305.038,56.3151 L 305,56.8 L 305,80.3 L 308.2,80.3 L 308.2,95.3 L 305,95.3
 L 305,96.7 L 359,96.7 z
M 177,95.3 L 173.8,95.3 L 173.8,80.3 L 177,80.3 L 177,56.8 L 176.962,56.3151
 L 176.848,55.8421 L 176.662,55.3926 L 176.408,54.9779 L 176.092,54.608 L 175.722,54.2921 L 175.307,54.0379
 L 174.858,53.8517 L 174.385,53.7382 L 173.9,53.7 L 126.1,53.7 L 125.615,53.7382 L 125.142,53.8517
 L 124.693,54.0379 L 124.278,54.2921 L 123.908,54.608 L 123.592,54.9779 L 123.338,55.3926 L 123.152,55.8421
 L 123.038,56.3151 L 123,56.8 L 123,80.3 L 126.2,80.3 L 126.2,95.3 L 123,95.3
 L 123,96.7 L 177,96.7 z
M 113,95.3 L 109.8,95.3 L 109.8,80.3 L 113,80.3 L 113,56.8 L 112.962,56.3151
 L 112.848,55.8421 L 112.662,55.3926 L 112.408,54.9779 L 112.092,54.608 L 111.722,54.2921 L 111.307,54.0379
 L 110.858,53.8517 L 110.385,53.7382 L 109.9,53.7 L 62.1,53.7 L 61.6151,53.7382 L 61.1421,53.8517
 L 60.6926,54.0379 L 60.2779,54.2921 L 59.908,54.608 L 59.5921,54.9779 L 59.3379,55.3926 L 59.1517,55.8421
 L 59.0382,56.3151 L 59,56.8 L 59,80.3 L 62.2,80.3 L 62.2,95.3 L 59,95.3
 L 59,96.7 L 113,96.7 z
M 482,143.3 L 478.8,143.3 L 478.8,128.3 L 482,128.3 L 482,104.8 L 481.962,104.315
 L 481.848,103.842 L 481.662,103.393 L 481.408,102.978 L 481.092,102.608 L 480.722,102.292 L 480.307,102.038
 L 479.858,101.852 L 479.385,101.738 L 478.9,101.7 L 431.1,101.7 L 430.615,101.738 L 430.142,101.852
 L 429.693,102.038 L 429.278,102.292 L 428.908,102.608 L 428.592,102.978 L 428.338,103.393 L 428.152,103.842
 L 428.038,104.315 L 428,104.8 L 428,128.3 L 431.2,128.3 L 431.2,143.3 L 428,143.3
 L 428,144.7 L 482,144.7 z
M 236,143.3 L 232.8,143.3 L 232.8,128.3 L 236,128.3 L 236,104.8 L 235.962,104.315
 L 235.848,103.842 L 235.662,103.393 L 235.408,102.978 L 235.092,102.608 L 234.722,102.292 L 234.307,102.038
 L 233.858,101.852 L 233.385,101.738 L 232.9,101.7 L 185.1,101.7 L 184.615,101.738 L 184.142,101.852
 L 183.693,102.038 L 183.278,102.292 L 182.908,102.608 L 182.592,102.978 L 182.338,103.393 L 182.152,103.842
 L 182.038,104.315 L 182,104.8 L 182,128.3 L 185.2,128.3 L 185.2,143.3 L 182,143.3
 L 182,144.7 L 236,144.7 z
M 300,143.3 L 296.8,143.3 L 296.8,128.3 L 300,128.3 L 300,104.8 L 299.962,104.315
 L 299.848,103.842 L 299.662,103.393 L 299.408,102.978 L 299.092,102.608 L 298.722,102.292 L 298.307,102.038
 L 297.858,101.852 L 297.385,101.738 L 296.9,101.7 L 249.1,101.7 L 248.615,101.738 L 248.142,101.852
 L 247.693,102.038 L 247.278,102.292 L 246.908,102.608 L 246.592,102.978 L 246.338,103.393 L 246.152,103.842
 L 246.038,104.315 L 246,104.8 L 246,128.3 L 249.2,128.3 L 249.2,143.3 L 246,143.3
 L 246,144.7 L 300,144.7 z
M 423,143.3 L 419.8,143.3 L 419.8,128.3 L 423,128.3 L 423,104.8 L 422.962,104.315
 L 422.848,103.842 L 422.662,103.393 L 422.408,102.978 L 422.092,102.608 L 421.722,102.292 L 421.307,102.038
 L 420.858,101.852 L 420.385,101.738 L 419.9,101.7 L 372.1,101.7 L 371.615,101.738 L 371.142,101.852
 L 370.693,102.038 L 370.278,102.292 L 369.908,102.608 L 369.592,102.978 L 369.338,103.393 L 369.152,103.842
 L 369.038,104.315 L 369,104.8 L 369,128.3 L 372.2,128.3 L 372.2,143.3 L 369,143.3
 L 369,144.7 L 423,144.7 z
M 113,143.3 L 109.8,143.3 L 109.8,128.3 L 113,128.3 L 113,104.8 L 112.962,104.315
 L 112.848,103.842 L 112.662,103.393 L 112.408,102.978 L 112.092,102.608 L 111.722,102.292 L 111.307,102.038
 L 110.858,101.852 L 110.385,101.738 L 109.9,101.7 L 62.1,101.7 L 61.6151,101.738 L 61.1421,101.852
 L 60.6926,102.038 L 60.2779,102.292 L 59.908,102.608 L 59.5921,102.978 L 59.3379,103.393 L 59.1517,103.842
 L 59.0382,104.315 L 59,104.8 L 59,128.3 L 62.2,128.3 L 62.2,143.3 L 59,143.3
 L 59,144.7 L 113,144.7 z
M 54,143.3 L 50.8,143.3 L 50.8,128.3 L 54,128.3 L 54,104.8 L 53.9618,104.315
 L 53.8483,103.842 L 53.6621,103.393 L 53.4079,102.978 L 53.092,102.608 L 52.7221,102.292 L 52.3074,102.038
 L 51.8579,101.852 L 51.3849,101.738 L 50.9,101.7 L 3.09999,101.7 L 2.61505,101.738 L 2.14204,101.852
 L 1.69263,102.038 L 1.27786,102.292 L 0.907959,102.608 L 0.592041,102.978 L 0.337875,103.393 L 0.151718,103.842
 L 0.0381622,104.315 L 0,104.8 L 0,128.3 L 3.2,128.3 L 3.2,143.3 L 0,143.3
 L 0,144.7 L 54,144.7 z
M 359,143.3 L 355.8,143.3 L 355.8,128.3 L 359,128.3 L 359,104.8 L 358.962,104.315
 L 358.848,103.842 L 358.662,103.393 L 358.408,102.978 L 358.092,102.608 L 357.722,102.292 L 357.307,102.038
 L 356.858,101.852 L 356.385,101.738 L 355.9,101.7 L 308.1,101.7 L 307.615,101.738 L 307.142,101.852
 L 306.693,102.038 L 306.278,102.292 L 305.908,102.608 L 305.592,102.978 L 305.338,103.393 L 305.152,103.842
 L 305.038,104.315 L 305,104.8 L 305,128.3 L 308.2,128.3 L 308.2,143.3 L 305,143.3
 L 305,144.7 L 359,144.7 z
M 177,143.3 L 173.8,143.3 L 173.8,128.3 L 177,128.3 L 177,104.8 L 176.962,104.315
 L 176.848,103.842 L 176.662,103.393 L 176.408,102.978 L 176.092,102.608 L 175.722,102.292 L 175.307,102.038
 L 174.858,101.852 L 174.385,101.738 L 173.9,101.7 L 126.1,101.7 L 125.615,101.738 L 125.142,101.852
 L 124.693,102.038 L 124.278,102.292 L 123.908,102.608 L 123.592,102.978 L 123.338,103.393 L 123.152,103.842
 L 123.038,104.315 L 123,104.8 L 123,128.3 L 126.2,128.3 L 126.2,143.3 L 123,143.3
 L 123,144.7 L 177,144.7 z
M 359,191.3 L 355.8,191.3 L 355.8,176.3 L 359,176.3 L 359,152.8 L 358.962,152.315
 L 358.848,151.842 L 358.662,151.393 L 358.408,150.978 L 358.092,150.608 L 357.722,150.292 L 357.307,150.038
 L 356.858,149.852 L 356.385,149.738 L 355.9,149.7 L 308.1,149.7 L 307.615,149.738 L 307.142,149.852
 L 306.693,150.038 L 306.278,150.292 L 305.908,150.608 L 305.592,150.978 L 305.338,151.393 L 305.152,151.842
 L 305.038,152.315 L 305,152.8 L 305,176.3 L 308.2,176.3 L 308.2,191.3 L 305,191.3
 L 305,192.7 L 359,192.7 z
M 54,191.3 L 50.8,191.3 L 50.8,176.3 L 54,176.3 L 54,152.8 L 53.9618,152.315
 L 53.8483,151.842 L 53.6621,151.393 L 53.4079,150.978 L 53.092,150.608 L 52.7221,150.292 L 52.3074,150.038
 L 51.8579,149.852 L 51.3849,149.738 L 50.9,149.7 L 3.09999,149.7 L 2.61505,149.738 L 2.14204,149.852
 L 1.69263,150.038 L 1.27786,150.292 L 0.907959,150.608 L 0.592041,150.978 L 0.337875,151.393 L 0.151718,151.842
 L 0.0381622,152.315 L 0,152.8 L 0,176.3 L 3.2,176.3 L 3.2,191.3 L 0,191.3
 L 0,192.7 L 54,192.7 z
M 423,191.3 L 419.8,191.3 L 419.8,176.3 L 423,176.3 L 423,152.8 L 422.962,152.315
 L 422.848,151.842 L 422.662,151.393 L 422.408,150.978 L 422.092,150.608 L 421.722,150.292 L 421.307,150.038
 L 420.858,149.852 L 420.385,149.738 L 419.9,149.7 L 372.1,149.7 L 371.615,149.738 L 371.142,149.852
 L 370.693,150.038 L 370.278,150.292 L 369.908,150.608 L 369.592,150.978 L 369.338,151.393 L 369.152,151.842
 L 369.038,152.315 L 369,152.8 L 369,176.3 L 372.2,176.3 L 372.2,191.3 L 369,191.3
 L 369,192.7 L 423,192.7 z
M 236,191.3 L 232.8,191.3 L 232.8,176.3 L 236,176.3 L 236,152.8 L 235.962,152.315
 L 235.848,151.842 L 235.662,151.393 L 235.408,150.978 L 235.092,150.608 L 234.722,150.292 L 234.307,150.038
 L 233.858,149.852 L 233.385,149.738 L 232.9,149.7 L 185.1,149.7 L 184.615,149.738 L 184.142,149.852
 L 183.693,150.038 L 183.278,150.292 L 182.908,150.608 L 182.592,150.978 L 182.338,151.393 L 182.152,151.842
 L 182.038,152.315 L 182,152.8 L 182,176.3 L 185.2,176.3 L 185.2,191.3 L 182,191.3
 L 182,192.7 L 236,192.7 z
M 113,191.3 L 109.8,191.3 L 109.8,176.3 L 113,176.3 L 113,152.8 L 112.962,152.315
 L 112.848,151.842 L 112.662,151.393 L 112.408,150.978 L 112.092,150.608 L 111.722,150.292 L 111.307,150.038
 L 110.858,149.852 L 110.385,149.738 L 109.9,149.7 L 62.1,149.7 L 61.6151,149.738 L 61.1421,149.852
 L 60.6926,150.038 L 60.2779,150.292 L 59.908,150.608 L 59.5921,150.978 L 59.3379,151.393 L 59.1517,151.842
 L 59.0382,152.315 L 59,152.8 L 59,176.3 L 62.2,176.3 L 62.2,191.3 L 59,191.3
 L 59,192.7 L 113,192.7 z
M 177,191.3 L 173.8,191.3 L 173.8,176.3 L 177,176.3 L 177,152.8 L 176.962,152.315
 L 176.848,151.842 L 176.662,151.393 L 176.408,150.978 L 176.092,150.608 L 175.722,150.292 L 175.307,150.038
 L 174.858,149.852 L 174.385,149.738 L 173.9,149.7 L 126.1,149.7 L 125.615,149.738 L 125.142,149.852
 L 124.693,150.038 L 124.278,150.292 L 123.908,150.608 L 123.592,150.978 L 123.338,151.393 L 123.152,151.842
 L 123.038,152.315 L 123,152.8 L 123,176.3 L 126.2,176.3 L 126.2,191.3 L 123,191.3
 L 123,192.7 L 177,192.7 z
M 300,191.3 L 296.8,191.3 L 296.8,176.3 L 300,176.3 L 300,152.8 L 299.962,152.315
 L 299.848,151.842 L 299.662,151.393 L 299.408,150.978 L 299.092,150.608 L 298.722,150.292 L 298.307,150.038
 L 297.858,149.852 L 297.385,149.738 L 296.9,149.7 L 249.1,149.7 L 248.615,149.738 L 248.142,149.852
 L 247.693,150.038 L 247.278,150.292 L 246.908,150.608 L 246.592,150.978 L 246.338,151.393 L 246.152,151.842
 L 246.038,152.315 L 246,152.8 L 246,176.3 L 249.2,176.3 L 249.2,191.3 L 246,191.3
 L 246,192.7 L 300,192.7 z
M 482,191.3 L 478.8,191.3 L 478.8,176.3 L 482,176.3 L 482,152.8 L 481.962,152.315
 L 481.848,151.842 L 481.662,151.393 L 481.408,150.978 L 481.092,150.608 L 480.722,150.292 L 480.307,150.038
 L 479.858,149.852 L 479.385,149.738 L 478.9,149.7 L 431.1,149.7 L 430.615,149.738 L 430.142,149.852
 L 429.693,150.038 L 429.278,150.292 L 428.908,150.608 L 428.592,150.978 L 428.338,151.393 L 428.152,151.842
 L 428.038,152.315 L 428,152.8 L 428,176.3 L 431.2,176.3 L 431.2,191.3 L 428,191.3
 L 428,192.7 L 482,192.7 z
" stroke="black" fill="lightgray" stroke-width="0.5"/>
</svg>
